<svg xmlns="http://www.w3.org/2000/svg" width="111" height="26" fill="none"><g clip-path="url(#a)"><path fill="#A6FF79" fill-rule="evenodd" d="M7.869 2.459h1.475v1.475a5.41 5.41 0 0 1-5.41 5.41H2.46V7.87a5.41 5.41 0 0 1 5.41-5.41ZM11.803 0v3.934a7.869 7.869 0 0 1-7.869 7.87H0V7.868A7.869 7.869 0 0 1 7.869 0h3.934ZM2.46 15.246h1.475a5.41 5.41 0 0 1 5.41 5.41v1.475H7.87a5.41 5.41 0 0 1-5.41-5.41v-1.475ZM0 16.72v-3.934h3.934a7.869 7.869 0 0 1 7.87 7.869v3.934H7.868A7.869 7.869 0 0 1 0 16.721Zm22.131-1.475h-1.475a5.41 5.41 0 0 0-5.41 5.41v1.475h1.475a5.41 5.41 0 0 0 5.41-5.41v-1.475Zm2.46 1.475v-3.934h-3.935a7.869 7.869 0 0 0-7.87 7.869v3.934h3.935a7.869 7.869 0 0 0 7.87-7.869ZM15.245 2.46h1.475a5.41 5.41 0 0 1 5.41 5.41v1.475h-1.475a5.41 5.41 0 0 1-5.41-5.41V2.46Zm-2.46 1.475V0h3.935a7.869 7.869 0 0 1 7.87 7.869v3.934h-3.935a7.869 7.869 0 0 1-7.87-7.869Z" clip-rule="evenodd"/><path fill="#fff" d="M35.264 20.376c-1.216 0-2.296-.216-3.24-.648-.944-.432-1.68-1.048-2.208-1.848-.528-.8-.8-1.752-.816-2.856h3.048c0 .56.128 1.064.384 1.512.272.432.64.776 1.104 1.032.48.256 1.056.384 1.728.384.576 0 1.072-.088 1.488-.264.432-.192.76-.456.984-.792.24-.352.36-.76.36-1.224 0-.528-.128-.96-.384-1.296-.24-.352-.576-.648-1.008-.888a8.002 8.002 0 0 0-1.488-.624c-.56-.192-1.152-.392-1.776-.6-1.328-.448-2.328-1.016-3-1.704-.672-.704-1.008-1.64-1.008-2.808 0-.976.232-1.816.696-2.52.464-.704 1.112-1.248 1.944-1.632C32.92 3.2 33.896 3 35 3c1.12 0 2.096.2 2.928.6.848.4 1.512.96 1.992 1.68.496.704.752 1.552.768 2.544h-3.072a2.411 2.411 0 0 0-.336-1.152 2.321 2.321 0 0 0-.912-.888c-.384-.24-.856-.36-1.416-.36a2.843 2.843 0 0 0-1.296.24c-.368.16-.664.4-.888.72-.208.304-.312.688-.312 1.152 0 .448.096.824.288 1.128.208.288.504.536.888.744.384.192.832.376 1.344.552l1.68.576a11.2 11.2 0 0 1 2.256 1.008 4.506 4.506 0 0 1 1.632 1.512c.4.624.6 1.432.6 2.424 0 .864-.224 1.672-.672 2.424-.448.736-1.104 1.336-1.968 1.8-.864.448-1.944.672-3.24.672Zm11.152 0c-.976 0-1.816-.192-2.52-.576-.688-.4-1.216-.992-1.584-1.776-.368-.8-.552-1.784-.552-2.952v-7.08h2.88v6.792c0 1.04.216 1.832.648 2.376.448.528 1.12.792 2.016.792a2.9 2.9 0 0 0 1.536-.408 2.752 2.752 0 0 0 1.08-1.176c.272-.528.408-1.168.408-1.92V7.992h2.88v12.096h-2.544l-.216-2.016a4.162 4.162 0 0 1-1.608 1.68c-.688.416-1.496.624-2.424.624Zm8.077-.288V7.992h2.544l.216 2.016a4.21 4.21 0 0 1 1.584-1.68c.688-.416 1.504-.624 2.448-.624.976 0 1.808.208 2.496.624.688.4 1.216.992 1.584 1.776.384.784.576 1.76.576 2.928v7.056h-2.88v-6.792c0-1.008-.224-1.784-.672-2.328-.448-.544-1.112-.816-1.992-.816-.576 0-1.096.136-1.56.408-.448.272-.808.672-1.08 1.2-.256.512-.384 1.136-.384 1.872v6.456h-2.88Zm18.228.288c-1.2 0-2.256-.256-3.168-.768a5.563 5.563 0 0 1-2.136-2.208c-.512-.944-.768-2.032-.768-3.264 0-1.28.248-2.4.744-3.36A5.689 5.689 0 0 1 69.53 8.52c.928-.544 2-.816 3.216-.816 1.184 0 2.216.264 3.096.792.88.528 1.56 1.24 2.04 2.136.48.88.72 1.872.72 2.976v.528c0 .192-.016.392-.048.6h-9.84v-1.848h6.984c-.032-.88-.328-1.568-.888-2.064-.56-.512-1.256-.768-2.088-.768-.592 0-1.136.136-1.632.408-.496.272-.888.68-1.176 1.224-.288.528-.432 1.2-.432 2.016v.696c0 .752.136 1.4.408 1.944.288.544.672.96 1.152 1.248a3.387 3.387 0 0 0 1.656.408c.672 0 1.224-.144 1.656-.432.448-.288.776-.672.984-1.152h2.928a5.633 5.633 0 0 1-1.104 2.04 5.619 5.619 0 0 1-1.896 1.416c-.752.336-1.6.504-2.544.504Zm6.619-.288V7.992h2.568l.264 2.256a4.703 4.703 0 0 1 1.08-1.344c.432-.384.936-.68 1.512-.888a5.828 5.828 0 0 1 1.944-.312v3.048H85.7c-.48 0-.936.064-1.368.192a2.8 2.8 0 0 0-1.128.576c-.304.256-.544.616-.72 1.08-.176.448-.264 1.016-.264 1.704v5.784h-2.88Zm12.426 5.568c-1.136 0-2.136-.144-3-.432-.848-.272-1.512-.696-1.992-1.272-.464-.56-.696-1.264-.696-2.112 0-.496.12-.984.36-1.464.256-.464.632-.896 1.128-1.296.512-.416 1.16-.776 1.944-1.08l1.272 1.392c-.768.272-1.304.6-1.608.984-.304.384-.456.776-.456 1.176 0 .416.128.76.384 1.032.272.288.632.504 1.08.648.464.144.984.216 1.56.216.56 0 1.048-.08 1.464-.24.416-.144.736-.352.96-.624.24-.272.36-.6.36-.984 0-.48-.168-.872-.504-1.176-.336-.288-1-.464-1.992-.528a23.263 23.263 0 0 1-2.232-.264 12.9 12.9 0 0 1-1.656-.432 6.486 6.486 0 0 1-1.152-.528 4.881 4.881 0 0 1-.792-.624v-.552l2.52-2.64 2.136.696-2.832 2.76.744-1.392c.16.112.32.216.48.312.176.096.392.184.648.264.272.064.624.128 1.056.192.432.064.992.128 1.68.192 1.072.08 1.944.272 2.616.576.672.304 1.168.712 1.488 1.224.32.512.48 1.128.48 1.848 0 .704-.2 1.368-.6 1.992-.384.624-.976 1.136-1.776 1.536-.8.4-1.824.6-3.072.6Zm0-9.192c-1.008 0-1.88-.192-2.616-.576-.72-.4-1.272-.928-1.656-1.584a4.373 4.373 0 0 1-.576-2.208c0-.816.192-1.552.576-2.208.384-.656.936-1.184 1.656-1.584.736-.4 1.608-.6 2.616-.6s1.872.2 2.592.6c.72.4 1.272.928 1.656 1.584.384.656.576 1.392.576 2.208 0 .8-.192 1.536-.576 2.208-.384.656-.936 1.184-1.656 1.584-.72.384-1.584.576-2.592.576Zm0-2.232c.688 0 1.24-.184 1.656-.552.416-.368.624-.896.624-1.584 0-.688-.208-1.208-.624-1.56-.416-.368-.968-.552-1.656-.552s-1.248.184-1.68.552c-.432.352-.648.872-.648 1.56 0 .688.216 1.216.648 1.584.432.368.992.552 1.68.552Zm1.992-4.128-.552-2.112h4.968v1.8l-4.416.312Z"/><path fill="#fff" d="m100.261 25.368 2.952-6.624h-.72L97.669 7.992h3.144l3.6 8.208 3.408-8.208h3.048l-7.56 17.376h-3.048Z"/></g><defs><clipPath id="a"><path fill="#fff" d="M0 0h111v26H0z"/></clipPath></defs></svg>